# xmcd
#
# Track frame offsets:
#	150
#	7899
#	26548
#	40223
#	57367
#	73233
#	86033
#	96964
#	116379
#	132214
#	140831
#	156805
#	169074
#	186971
#	204799
#	221323
#	230048
#	249221
#	264030
#	277428
#	291696
#
# Disc length: 3925 seconds
#
# Revision: 0
# Processed by: cddbd v1.5.1PL2 Copyright (c) Steve Scherf et al.
# Submitted via: EasyCDDAExtractor 9.1.3.1
#
DISCID=370f5315
DTITLE=Willie Nelson - The Complete Atlantic Sessions - Disc 2 (Phases and Stage
DTITLE=s)
DYEAR=2006
DGENRE=Country
TTITLE0=Phases and Stages (Theme)/Washing The Dishes
TTITLE1=Phases and Stages (Theme)/Walkin'
TTITLE2=Pretend It Never Happened
TTITLE3=Sister's Coming Home/Down At The Corner Beer Joint
TTITLE4=(How Will I Know) I'm Falling In Love Again
TTITLE5=Bloody Mary Morning
TTITLE6=Phases and Stages (Theme)/No Love Around
TTITLE7=I Still Can't Believe You're Gone
TTITLE8=It's Not Suppose To Be That Way
TTITLE9=Heaven And Hell
TTITLE10=Phases and Stages (Theme)/Pick Up The Tempo/Phases and Stages (Theme)
TTITLE11=Phases and Stages (Theme)/Washing The Dishes (Bonus, Prev. Unrel., Alt.
TTITLE11=Version)
TTITLE12=Sister's Coming Home/Down At The Corner Beer Joint (Bonus, Prev. Unre
TTITLE12=l., Alt. Version)
TTITLE13=Phases and Stages (Theme)/(How Will I Know) I'm Falling In Love Again (
TTITLE13=Bonus, Prev.Unrel., Alt. Version
TTITLE14=Bloody Mary Morning (Bonus, Prev. Unrel., Alt. Version)
TTITLE15=No Love Around (Bonus, Prev. Unrel., Alt. Version
TTITLE16=I Still Can't Believe You're Gone (Bonus, Prev. Unrel., Alt. Version)
TTITLE17=It Not Suppose To Be That Way (Bonus, Prev. Unrel., Alt. Version)
TTITLE18=Heaven And Hell (Bonus, Prev. Unrel., Alt. Version/Duet Vocal)
TTITLE19=Phases and Stages (Theme)/Pick Up The Tempo (Bonus)
TTITLE20=Phases and Stages (Theme) (Bonus, Prev. Unrel., Alt. Version)
EXTD=
EXTT0=
EXTT1=
EXTT2=
EXTT3=
EXTT4=
EXTT5=
EXTT6=
EXTT7=
EXTT8=
EXTT9=
EXTT10=
EXTT11=
EXTT12=
EXTT13=
EXTT14=
EXTT15=
EXTT16=
EXTT17=
EXTT18=
EXTT19=
EXTT20=
PLAYORDER=
